{"title":"Pyaar Ka Punchnama 2 - Official Trailer - 1080p Full HD - Team t","uid":12402728,"size":24552985,"categoryP":"video","categoryS":"music_videos","magnet":"?xt=urn:btih:f472f1c7dc908e01a653899a0544857463d819fc&amp;dn=Pyaar+Ka+Punchnama+2+-+Official+Trailer+-+1080p+Full+HD+-+Team+t&amp;tr=udp%3A%2F%2Ftracker.openbittorrent.com%3A80&amp;tr=udp%3A%2F%2Fopen.demonii.com%3A1337&amp;tr=udp%3A%2F%2Ftracker.coppersurfer.tk%3A6969&amp;tr=udp%3A%2F%2Fexodus.desync.com%3A6969","seeders":0,"leechers":1,"uploader":"Aainul","files":5,"time":1442050142,"description":"Pyaar Ka Punchnama 2 - Official Trailer - 1080p Full HD - Team truHD HEVC\n\nSource: WEB-DL \n\nEncoder: truHD HEVC Encoding Team \n\nEncoded File Info: \n\nGeneral \n\nFormat                                   : MPEG-4 \nFormat profile                           : Base Media \nCodec ID                                 : iso4 \nFile size                                : 23.2 MiB \nDuration                                 : 3mn 10s \nOverall bit rate mode                    : Variable \nOverall bit rate                         : 1 019 Kbps \nEncoded date                             : UTC 2015-09-07 08:48:57 \nTagged date                              : UTC 2015-09-07 08:48:57 \n\nVideo \nID                                       : 1 \nFormat                                   : HEVC \nFormat/Info                              : High Efficiency Video Coding \nCodec ID                                 : hvc1 \nCodec ID/Info                            : High Efficiency Video Coding \nDuration                                 : 3mn 10s \nBit rate                                 : 927 Kbps \nMaximum bit rate                         : 4 009 Kbps \nWidth                                    : 1 920 pixels \nHeight                                   : 1 080 pixels \nDisplay aspect ratio                     : 16:9 \nFrame rate mode                          : Constant \nFrame rate                               : 25.000 fps \nBits/(Pixel*Frame)                       : 0.018 \nStream size                              : 21.1 MiB (91%) \nTitle                                    : Video \nEncoded date                             : UTC 2015-09-07 08:48:57 \nTagged date                              : UTC 2015-09-07 08:48:59 \n\nAudio \nID                                       : 2 \nFormat                                   : AAC \nFormat/Info                              : Advanced Audio Codec \nFormat profile                           : LC \nCodec ID                                 : 40 \nDuration                                 : 3mn 10s \nBit rate mode                            : Variable \nBit rate                                 : 88.3 Kbps \nMaximum bit rate                         : 121 Kbps \nChannel(s)                               : 2 channels \nChannel positions                        : Front: L R \nSampling rate                            : 44.1 KHz \nCompression mode                         : Lossy \nStream size                              : 2.01 MiB (9%) \nTitle                                    :   \nEncoded date                             : UTC 2015-09-07 07:51:24 \nTagged date                              : UTC 2015-09-07 08:48:59 \n\n\nScreenShots:\n &lt;a href=&quot;\nhttp://i.imgur.com/p7c1Ujg.jpg&quot; rel=&quot;nofollow&quot; target=&quot;_NEW&quot;&gt;\nhttp://i.imgur.com/p7c1Ujg.jpg&lt;/a&gt;\n\nLike Us On FB And Request Accepted\n\nKickAssTorrents:    &lt;a href=&quot;\nhttps://kat.cr/user/Aainul/&quot; rel=&quot;nofollow&quot; target=&quot;_NEW&quot;&gt;\nhttps://kat.cr/user/Aainul/&lt;/a&gt;\nGloTorrents:    &lt;a href=&quot;\nhttps://glodls.to/user/Aainul&quot; rel=&quot;nofollow&quot; target=&quot;_NEW&quot;&gt;\nhttps://glodls.to/user/Aainul&lt;/a&gt;\nThePirateBay:    &lt;a href=&quot;\nhttps://thepiratebay.vg/user/Aainul/&quot; rel=&quot;nofollow&quot; target=&quot;_NEW&quot;&gt;\nhttps://thepiratebay.vg/user/Aainul/&lt;/a&gt;\n1337x Torrents:    &lt;a href=&quot;\nhttp://1337.to/user/Aainul/&quot; rel=&quot;nofollow&quot; target=&quot;_NEW&quot;&gt;\nhttp://1337.to/user/Aainul/&lt;/a&gt;\n\n\nNote: All Videos Uploaded By Me Are For Review Purpose. If You Like IT, Google IT And Buy IT - Thanks\n\n\nKing Regards\ntruHD HEVC Team\n\nShare Among Friends And Relatives","torrent":{"xt":"urn:btih:f472f1c7dc908e01a653899a0544857463d819fc","amp;dn":"Pyaar+Ka+Punchnama+2+-+Official+Trailer+-+1080p+Full+HD+-+Team+t","amp;tr":["udp%3A%2F%2Ftracker.openbittorrent.com%3A80","udp%3A%2F%2Fopen.demonii.com%3A1337","udp%3A%2F%2Ftracker.coppersurfer.tk%3A6969","udp%3A%2F%2Fexodus.desync.com%3A6969"],"infoHash":"f472f1c7dc908e01a653899a0544857463d819fc","infoHashBuffer":{"type":"Buffer","data":[244,114,241,199,220,144,142,1,166,83,137,154,5,68,133,116,99,216,25,252]},"announce":[],"urlList":[]}}